<svg xmlns="http://www.w3.org/2000/svg" xmlns:xlink="http://www.w3.org/1999/xlink" version="1.1" x="0px" y="0px" viewBox="0 0 65 81.25" style="enable-background:new 0 0 65 65;" xml:space="preserve"><path d="M25,15.4c-0.2,0-0.4,0.1-0.6,0.2l-6.9,6.9c-0.3,0.3-0.3,0.8,0,1.1l21.9,21.9c0.3,0.3,0.8,0.3,1.1,0l6.9-6.9  c0.2-0.2,0.2-0.3,0.2-0.6c0-0.2-0.1-0.4-0.2-0.6L25.6,15.6C25.4,15.5,25.2,15.4,25,15.4z M32.5,35.4c-0.9,0-1.6-0.7-1.6-1.6  s0.7-1.6,1.6-1.6s1.6,0.7,1.6,1.6S33.4,35.4,32.5,35.4z M35.7,29c0.9,0,1.6,0.7,1.6,1.6c0,0.9-0.7,1.6-1.6,1.6s-1.6-0.7-1.6-1.6  C34.1,29.7,34.9,29,35.7,29z M32.5,25.8c0.9,0,1.6,0.7,1.6,1.6S33.4,29,32.5,29s-1.6-0.7-1.6-1.6S31.7,25.8,32.5,25.8z M29.3,29  c0.9,0,1.6,0.7,1.6,1.6c0,0.9-0.7,1.6-1.6,1.6c-0.9,0-1.6-0.7-1.6-1.6C27.7,29.7,28.5,29,29.3,29z"/><path d="M58.9,11.2L58.9,11.2c-4-5-10.4-7.7-16.9-6.9c-4.2,0.5-7.7,2.4-9.7,5.2c-2-2.8-5.5-4.7-9.6-5.2  C16.3,3.5,9.9,6.1,5.9,11.2c-3.7,5-5.1,10.3-4.2,15.7C3.9,39.7,19,51.7,31.9,60.7l0.6,0.4l0.6-0.4c13.8-9.6,28.1-21.1,30.2-33.8  C64.1,21.5,62.7,16.2,58.9,11.2z M48.6,36.4c0.5,0.5,0.7,1.1,0.7,1.7c0,0.6-0.2,1.2-0.7,1.7l-6.9,6.9c-0.5,0.5-1.1,0.7-1.7,0.7  c-0.6,0-1.2-0.2-1.7-0.7l-5.8-5.8l-5.8,5.8c-0.5,0.5-1.1,0.7-1.7,0.7c-0.6,0-1.2-0.2-1.7-0.7l-6.9-6.9c-0.5-0.5-0.7-1.1-0.7-1.7  c0-0.6,0.2-1.2,0.7-1.7l5.8-5.8l-5.8-5.8c-0.5-0.5-0.7-1.1-0.7-1.7c0-0.6,0.2-1.2,0.7-1.7l6.9-6.9c0.5-0.5,1.1-0.7,1.7-0.7  c0.6,0,1.2,0.2,1.7,0.7l5.8,5.8l5.8-5.8c0.5-0.5,1.1-0.7,1.7-0.7c0.6,0,1.2,0.2,1.7,0.7l6.9,6.9c0.5,0.5,0.7,1.1,0.7,1.7  c0,0.6-0.2,1.2-0.7,1.7l-5.8,5.8L48.6,36.4z"/><text x="0" y="80" fill="#000000" font-size="5px" font-weight="bold" font-family="'Helvetica Neue', Helvetica, Arial-Unicode, Arial, Sans-serif">Created by VM</text><text x="0" y="85" fill="#000000" font-size="5px" font-weight="bold" font-family="'Helvetica Neue', Helvetica, Arial-Unicode, Arial, Sans-serif">from the Noun Project</text></svg>