<svg xmlns="http://www.w3.org/2000/svg" viewBox="0 0 48 48" id="doctor">
  <g>
    <path fill="#fad9ba" d="M34,15v7a10,10,0,0,1-20,0V15Z"></path>
    <path fill="#65c5b4" d="M39,43H9V42A10,10,0,0,1,19,32H29A10,10,0,0,1,39,42Z"></path>
    <polygon fill="#42a592" points="24 40 20 32 28 32 24 40"></polygon>
    <path fill="#65c5b4" d="M21.34,5h5.31A8.34,8.34,0,0,1,35,13.34V15a0,0,0,0,1,0,0H13a0,0,0,0,1,0,0V13.34A8.34,8.34,0,0,1,21.34,5Z"></path>
    <path fill="#ec7bb0" d="M26,11H22a1,1,0,0,1,0-2h4a1,1,0,0,1,0,2Z"></path>
    <path fill="#ec7bb0" d="M24,13a1,1,0,0,1-1-1V8a1,1,0,0,1,2,0v4A1,1,0,0,1,24,13Z"></path>
    <path fill="#e2b28a" d="M14,15h0a0,0,0,0,1,0,0v7a0,0,0,0,1,0,0h0a3,3,0,0,1-3-3V18A3,3,0,0,1,14,15Z"></path>
    <path fill="#e2b28a" d="M37,15h0a0,0,0,0,1,0,0v7a0,0,0,0,1,0,0h0a3,3,0,0,1-3-3V18A3,3,0,0,1,37,15Z" transform="rotate(180 35.5 18.5)"></path>
    <path fill="#938993" d="M20,41H19a1,1,0,0,1,0-2V35.5a2.5,2.5,0,0,0-5,0V39a1,1,0,0,1,0,2H13a1,1,0,0,1-1-1V35.5a4.5,4.5,0,0,1,9,0V40A1,1,0,0,1,20,41Z"></path>
    <circle cx="32" cy="38" r="2" fill="#938993"></circle>
    <path fill="#938993" d="M32,37a1,1,0,0,1-1-1V32a1,1,0,0,1,2,0v4A1,1,0,0,1,32,37Z"></path>
  </g>
</svg>
