<svg xmlns="http://www.w3.org/2000/svg" xmlns:xlink="http://www.w3.org/1999/xlink" version="1.1" x="0px" y="0px" viewBox="0 0 492 615" style="enable-background:new 0 0 492 492;" xml:space="preserve"><g><g><path d="M30.65,466.46c-3.03,0-5.57-2.37-5.75-5.44c-2.78-49.35,8.65-90.04,32.2-114.58c18.16-18.92,42.94-28.29,73.74-27.83    c10.58,0.16,19.46,2.45,28.05,4.66c19.25,4.96,35.88,9.24,68.61-10.73c28.21-17.21,48.44-51.74,48.12-82.1    c-0.16-14.56-5.12-34.7-27.88-47.93c-0.04-0.02-0.08-0.05-0.12-0.07c-2.21-1.35-54-33.72-54.73-83.4    c-0.04-1.19-0.52-15.47-0.08-30.81c0.85-29.77,4.22-36.71,7.73-39.79c2.39-2.1,6.03-1.85,8.13,0.54c2.05,2.35,1.86,5.89-0.4,8    c-3.46,4.79-4.79,35.69-3.86,61.71c0,0.04,0,0.08,0,0.13c0.59,42.85,47.45,72.68,49.19,73.77c21.36,12.45,33.28,32.94,33.54,57.72    c0.37,34.71-21.69,72.57-53.64,92.06c-36.9,22.51-57.53,17.2-77.49,12.06c-8.3-2.14-16.14-4.16-25.35-4.3    c-27.44-0.42-49.4,7.76-65.25,24.29c-21.31,22.21-31.61,59.84-29.01,105.96c0.18,3.18-2.25,5.9-5.43,6.08    C30.87,466.46,30.76,466.46,30.65,466.46z M208.14,37.11C208.14,37.11,208.14,37.11,208.14,37.11    C208.14,37.11,208.14,37.11,208.14,37.11z M208.32,36.93C208.32,36.93,208.32,36.93,208.32,36.93S208.32,36.93,208.32,36.93z     M81.02,466.46c-3.14,0-5.71-2.53-5.76-5.68c-0.77-55.06,16.72-75.57,31.53-83.08c20.62-10.46,49.54-2.99,81.43,21.05    c3.01,2.27,5.94,4.52,8.81,6.71c26.29,20.16,47.09,36.11,85.59,33.89c46.26-2.04,89.58-24.09,122.06-62.08    c38.01-44.46,56.92-104.74,50.63-161.31c-10.03-48.35-27.61-75.93-40.59-90.56c-13.98-15.75-25.75-20.23-25.87-20.28    c-0.19-0.07-0.4-0.16-0.58-0.25c-40.64-20.05-59.8-2.17-76.71,13.6c-10.16,9.48-19.76,18.43-31.96,14.03    c-45.08-11.85-33.41-96.92-32.89-100.55c0.45-3.15,3.37-5.33,6.52-4.88c3.15,0.45,5.33,3.37,4.88,6.52l0,0    c-0.03,0.2-2.9,20.7-0.85,42.04c1.77,18.39,7.62,41.26,25.47,45.79c0.21,0.05,0.42,0.12,0.62,0.2c5.4,2.04,10.96-2.81,20.34-11.56    c16.65-15.53,41.8-38.99,89.41-15.63c5.05,1.96,53.63,23.15,73.53,119.47c0.04,0.17,0.06,0.35,0.08,0.52    c6.73,59.76-13.2,123.44-53.3,170.34c-34.58,40.45-80.83,63.92-130.23,66.1c-42.73,2.44-66.11-15.49-93.19-36.25    c-2.84-2.18-5.74-4.4-8.73-6.66c-28.19-21.25-52.8-28.34-69.29-19.98c-17.05,8.65-25.77,33.77-25.23,72.65    c0.04,3.18-2.5,5.79-5.68,5.84C81.08,466.46,81.05,466.46,81.02,466.46z"/></g><g><path d="M429.9,298.59h-63.77c-3.18,0-5.76-2.58-5.76-5.76s2.58-5.76,5.76-5.76h63.77c3.18,0,5.76,2.58,5.76,5.76    S433.08,298.59,429.9,298.59z M341.92,298.59h-55.15c-3.18,0-5.76-2.58-5.76-5.76s2.58-5.76,5.76-5.76h55.15    c3.18,0,5.76,2.58,5.76,5.76S345.1,298.59,341.92,298.59z"/></g><g><path d="M354.03,318.45c-10.68,0-19.38-8.69-19.38-19.38c0-3.08,0.75-6.15,2.15-8.88c1.46-2.83,4.93-3.94,7.76-2.48    c2.83,1.46,3.94,4.93,2.48,7.76c-0.57,1.11-0.87,2.35-0.87,3.6c0,4.33,3.53,7.86,7.86,7.86c4.33,0,7.86-3.53,7.86-7.86    c0-1.25-0.3-2.49-0.87-3.6c-1.46-2.83-0.35-6.3,2.48-7.76c2.83-1.46,6.3-0.35,7.76,2.48c1.41,2.73,2.15,5.8,2.15,8.88    C373.41,309.75,364.72,318.45,354.03,318.45z"/></g><g><path d="M299.46,342.3c-9.59,0-17.38-7.8-17.38-17.38s7.8-17.38,17.38-17.38c9.59,0,17.39,7.8,17.39,17.38    S309.04,342.3,299.46,342.3z M299.46,319.05c-3.23,0-5.86,2.63-5.86,5.87s2.63,5.87,5.86,5.87c3.23,0,5.87-2.63,5.87-5.87    S302.69,319.05,299.46,319.05z"/></g><g><path d="M314.78,416.36c-9.59,0-17.38-7.8-17.38-17.38s7.8-17.38,17.38-17.38s17.38,7.8,17.38,17.38S324.37,416.36,314.78,416.36z     M314.78,393.11c-3.23,0-5.87,2.63-5.87,5.87s2.63,5.87,5.87,5.87s5.87-2.63,5.87-5.87S318.01,393.11,314.78,393.11z"/></g><g><path d="M348.15,342.49H335.4c-3.18,0-5.76-2.58-5.76-5.76s2.58-5.76,5.76-5.76h12.75c3.18,0,5.76,2.58,5.76,5.76    S351.34,342.49,348.15,342.49z"/></g><g><path d="M377.78,379.61h-12.75c-3.18,0-5.76-2.58-5.76-5.76s2.58-5.76,5.76-5.76h12.75c3.18,0,5.76,2.58,5.76,5.76    S380.96,379.61,377.78,379.61z"/></g><g><path d="M285.53,372.86h-12.75c-3.18,0-5.76-2.58-5.76-5.76s2.58-5.76,5.76-5.76h12.75c3.18,0,5.76,2.58,5.76,5.76    S288.71,372.86,285.53,372.86z"/></g><g><path d="M246.15,352.99H233.4c-3.18,0-5.76-2.58-5.76-5.76s2.58-5.76,5.76-5.76h12.75c3.18,0,5.76,2.58,5.76,5.76    S249.34,352.99,246.15,352.99z"/></g><g><path d="M249.15,417.86H236.4c-3.18,0-5.76-2.58-5.76-5.76s2.58-5.76,5.76-5.76h12.75c3.18,0,5.76,2.58,5.76,5.76    S252.34,417.86,249.15,417.86z"/></g><g><path d="M401.78,349.61c-9.59,0-17.38-7.8-17.38-17.38s7.8-17.38,17.38-17.38s17.38,7.8,17.38,17.38S411.37,349.61,401.78,349.61z     M401.78,326.36c-3.23,0-5.87,2.63-5.87,5.87s2.63,5.87,5.87,5.87s5.87-2.63,5.87-5.87S405.01,326.36,401.78,326.36z"/></g><g><path d="M210.53,374.74h-12.75c-3.18,0-5.76-2.58-5.76-5.76s2.58-5.76,5.76-5.76h12.75c3.18,0,5.76,2.58,5.76,5.76    S213.71,374.74,210.53,374.74z"/></g><g><path d="M176.41,288.05c-33.95,0-61.57-27.62-61.57-61.57s27.62-61.57,61.57-61.57s61.57,27.62,61.57,61.57    S210.36,288.05,176.41,288.05z M176.41,176.42c-27.6,0-50.05,22.45-50.05,50.05s22.45,50.05,50.05,50.05s50.05-22.45,50.05-50.05    S204.01,176.42,176.41,176.42z"/></g><g><path d="M180.21,261.36h-7.6c-6.43,0-11.67-5.23-11.67-11.67v-7.75h-7.75c-6.43,0-11.67-5.23-11.67-11.67v-7.6    c0-6.43,5.23-11.67,11.67-11.67h7.75v-7.75c0-6.43,5.23-11.67,11.67-11.67h7.6c6.43,0,11.67,5.23,11.67,11.67v7.75h7.75    c6.43,0,11.67,5.23,11.67,11.67v7.6c0,6.43-5.23,11.67-11.67,11.67h-7.75v7.75C191.87,256.13,186.64,261.36,180.21,261.36z     M153.19,222.53c-0.07,0-0.15,0.08-0.15,0.15v7.6c0,0.07,0.08,0.15,0.15,0.15h13.51c3.18,0,5.76,2.58,5.76,5.76v13.51    c0,0.07,0.08,0.15,0.15,0.15h7.6c0.07,0,0.15-0.08,0.15-0.15v-13.51c0-3.18,2.58-5.76,5.76-5.76h13.51c0.07,0,0.15-0.08,0.15-0.15    v-7.6c0-0.07-0.08-0.15-0.15-0.15h-13.51c-3.18,0-5.76-2.58-5.76-5.76v-13.51c0-0.07-0.08-0.15-0.15-0.15h-7.6    c-0.07,0-0.15,0.08-0.15,0.15v13.51c0,3.18-2.58,5.76-5.76,5.76H153.19z"/></g></g><text x="0" y="507" fill="#000000" font-size="5px" font-weight="bold" font-family="'Helvetica Neue', Helvetica, Arial-Unicode, Arial, Sans-serif">Created by Vectoricons</text><text x="0" y="512" fill="#000000" font-size="5px" font-weight="bold" font-family="'Helvetica Neue', Helvetica, Arial-Unicode, Arial, Sans-serif">from the Noun Project</text></svg>