<svg xmlns="http://www.w3.org/2000/svg" version="1.1" viewBox="-5.0 -10.0 110.0 135.0">
 <path d="m17.969 96.484h-10.938c-0.86328 0-1.5625-0.69922-1.5625-1.5625v-8.3281c0-6.918 2.5234-12.715 7.1016-16.328 4.2656-3.3594 10.012-4.4922 15.762-3.125 4.9141 1.1719 11.648 1.7383 15.852-2.2969 4.0312-3.8711 5.0625-11.523 2.9688-22.098-1.0352-5.2461-4.0312-10.168-8.4258-13.84-5.4961-4.582-8.6484-10.375-8.6484-15.887v-7.9414c0-0.86328 0.69922-1.5625 1.5625-1.5625h10.938c0.41406 0 0.8125 0.16406 1.1055 0.45703 0.29297 0.29297 0.45703 0.69141 0.45703 1.1055v7.9414c0 2.5156 0.62891 4.125 1.8711 4.7852 1.6562 0.88281 4.4414 0.078124 6.2188-1.125v-0.003907c3.168-2.125 6.9531-3.1484 10.766-2.9062 3.8047 0.19531 7.6289 1.5391 11.062 3.8633h-0.003906c0.71484 0.48828 0.90234 1.4609 0.41797 2.1758-0.48828 0.71484-1.4609 0.89844-2.1758 0.41406-6.0898-4.1211-13.109-4.4922-18.324-0.96094-2.5977 1.7578-6.5234 2.8438-9.4336 1.2969-1.6016-0.84766-3.5234-2.8516-3.5234-7.5391v-6.3789h-7.8125v6.3789c0 4.5156 2.8125 9.5625 7.5234 13.492 4.9414 4.125 8.3125 9.6797 9.4922 15.637 2.3438 11.844 1.0391 20.242-3.8672 24.957-4.1328 3.9688-10.617 5.0352-18.75 3.082-4.8125-1.1562-9.5898-0.23438-13.098 2.5391-3.8086 3-5.9102 7.9258-5.9102 13.867v6.7656h7.8125v-6.7656c0-6.6211 2.3594-10.23 7.0156-10.727 3.0742-0.30859 6.1133 0.85156 8.2031 3.125 8.5156 9.2031 21.438 10.031 33.727 2.1484l2.2656-1.5625h0.003906c2.1992-1.6289 4.2539-3.4453 6.1445-5.4297 7.875-8.2305 11.953-21.18 10.391-32.973-0.0625-0.41406 0.046875-0.83594 0.29688-1.168 0.25391-0.33594 0.62891-0.55469 1.043-0.60937 0.41406-0.054688 0.83203 0.058593 1.1641 0.31641 0.32812 0.25781 0.54297 0.63672 0.58984 1.0508 1.6875 12.695-2.7344 26.652-11.238 35.547h0.003906c-2.0195 2.1211-4.2188 4.0586-6.5703 5.7969l-0.039062 0.027344-2.3086 1.5898-0.039062 0.027344c-6.4453 4.1406-13.297 6.1719-19.789 5.875-6.875-0.32031-13.086-3.2656-17.945-8.5234v0.003906c-1.4258-1.543-3.4805-2.3359-5.5703-2.1484-1.9688 0.21094-4.2227 1.2656-4.2227 7.6172v8.3438c0 0.41406-0.16406 0.8125-0.45703 1.1055-0.29297 0.29297-0.69141 0.45703-1.1055 0.45703z"/>
 <path d="m48.598 84.25h-0.29688c-5.4375-0.070312-6.9766-2.5703-7.4219-4.0547-1.0234-3.4805 1.7891-7.5781 4.957-9.668 4.9062-3.2422 7.5391-8.7891 7.832-16.484l0.003906 0.003906c0.082031-2.8711 1.5703-5.5195 3.9805-7.082 3.2969-2.1016 6.3672-0.97656 9.6094 0.22656v-0.003906c1.2617 0.49219 2.5469 0.91016 3.8516 1.2617 3.1602 0.80469 5.7891 2.9883 7.1602 5.9453 1.3711 2.9609 1.3398 6.3789-0.089844 9.3086-1.5586 3.2578-3.6133 6.25-6.0977 8.8672-3.3672 3.5312-12.375 11.68-23.488 11.68zm13.008-35.332h0.003906c-0.80859-0.003907-1.5977 0.23438-2.2734 0.67969-1.543 1.0117-2.4922 2.7188-2.5391 4.5664-0.33203 8.7617-3.4375 15.148-9.2344 18.973-2.4531 1.6172-4.1719 4.5078-3.6797 6.1797 0.44922 1.5312 2.9844 1.7891 4.457 1.8125 6.9531 0.09375 14.992-3.9141 21.484-10.715l0.003906-0.003906c2.2617-2.3828 4.1367-5.1094 5.5625-8.0703 1.0195-2.0859 1.043-4.5195 0.070313-6.6289-0.97656-2.1055-2.8477-3.6602-5.1016-4.2344-1.4102-0.37891-2.7969-0.83203-4.1602-1.3594-1.9414-0.70313-3.3555-1.1992-4.5898-1.1992z"/>
 <path d="m80.273 43.75c-5.7656 0-10.965-3.4727-13.172-8.8008-2.207-5.3281-0.98828-11.461 3.0898-15.539s10.211-5.2969 15.539-3.0898c5.3281 2.207 8.8008 7.4062 8.8008 13.172-0.007812 7.8711-6.3867 14.25-14.258 14.258zm0-25.391c-4.5039 0-8.5625 2.7109-10.285 6.8711-1.7227 4.1602-0.76953 8.9492 2.4141 12.133 3.1836 3.1836 7.9727 4.1367 12.133 2.4141s6.8711-5.7812 6.8711-10.285c-0.007812-6.1445-4.9883-11.125-11.133-11.133z"/>
 <path d="m80.617 37.938c-3.2617 0-5.9062-2.6445-5.9102-5.9062 0-2.707 3.5625-7.7109 4.6562-9.1797h-0.003906c0.29688-0.39844 0.76172-0.62891 1.2578-0.62891 0.49219 0 0.95703 0.23047 1.25 0.62891 1.0938 1.4688 4.6562 6.4766 4.6562 9.1797-0.003907 3.2617-2.6484 5.9062-5.9062 5.9062zm0-11.438c-1.4961 2.2578-2.7812 4.6484-2.7812 5.5312h-0.003907c0 1.5391 1.2461 2.7812 2.7852 2.7812 1.5352 0 2.7812-1.2422 2.7812-2.7812 0-0.88281-1.2891-3.2734-2.7812-5.5312z"/>
<text x="0.0" y="117.5" font-size="5.0" font-weight="bold" font-family="Arbeit Regular, Helvetica, Arial-Unicode, Arial, Sans-serif" fill="#000000">Created by Designing Hub</text><text x="0.0" y="122.5" font-size="5.0" font-weight="bold" font-family="Arbeit Regular, Helvetica, Arial-Unicode, Arial, Sans-serif" fill="#000000">from Noun Project</text></svg>