<svg xmlns="http://www.w3.org/2000/svg" xmlns:xlink="http://www.w3.org/1999/xlink" version="1.1" x="0px" y="0px" viewBox="0 0 492 615" style="enable-background:new 0 0 492 492;" xml:space="preserve"><g><g><path d="M256.5,463.63c-0.16,0-0.31,0-0.46,0c-31.22-0.12-60.46-12.27-82.31-34.21c-21.85-21.95-33.88-51.22-33.85-82.45    c0.02-42.97,19.04-91.14,56.53-143.17c27.72-38.47,55-64.1,56.15-65.17c2.21-2.07,5.65-2.07,7.86,0    c1.15,1.07,28.44,26.71,56.17,65.19c37.5,52.05,56.51,100.23,56.51,143.2c0,31.23-12.19,60.57-34.32,82.62    C316.75,451.57,287.55,463.63,256.5,463.63z M256.48,150.88c-8.57,8.52-29.83,30.62-50.86,59.83    c-24.73,34.35-54.21,85.88-54.23,136.27c0,0,0,0,0,0c-0.04,57.75,46.92,104.91,104.69,105.13c0.14,0,0.28,0,0.42,0    c27.99,0,54.3-10.87,74.14-30.63c19.95-19.87,30.93-46.31,30.93-74.46c0-50.39-29.48-101.93-54.21-136.29    C286.32,181.51,265.05,159.4,256.48,150.88z M145.63,346.97L145.63,346.97L145.63,346.97z"/></g><g><path d="M262.51,376.4h-12.06c-8.34,0-15.12-6.78-15.12-15.12v-15.66h-15.66c-8.34,0-15.12-6.78-15.12-15.12v-12.06    c0-8.34,6.78-15.12,15.12-15.12h15.66v-15.66c0-8.34,6.78-15.12,15.12-15.12h12.06c8.34,0,15.12,6.78,15.12,15.12v15.66h15.66    c8.34,0,15.12,6.78,15.12,15.12v12.06c0,8.34-6.78,15.12-15.12,15.12h-15.66v15.66C277.63,369.62,270.85,376.4,262.51,376.4z     M219.67,314.84c-1.95,0-3.6,1.65-3.6,3.6v12.06c0,1.95,1.65,3.6,3.6,3.6h21.42c3.18,0,5.76,2.58,5.76,5.76v21.42    c0,1.95,1.65,3.6,3.6,3.6h12.06c1.95,0,3.6-1.65,3.6-3.6v-21.42c0-3.18,2.58-5.76,5.76-5.76h21.42c1.95,0,3.6-1.65,3.6-3.6v-12.06    c0-1.95-1.65-3.6-3.6-3.6h-21.42c-3.18,0-5.76-2.58-5.76-5.76v-21.42c0-1.95-1.65-3.6-3.6-3.6h-12.06c-1.95,0-3.6,1.65-3.6,3.6    v21.42c0,3.18-2.58,5.76-5.76,5.76H219.67z"/></g><g><path d="M198.17,113.19c-11.99,0-21.58-3.98-26.2-11.98c-9.38-16.24,5.84-41.99,34.65-58.62c28.8-16.63,58.71-16.93,68.09-0.7    c9.38,16.24-5.84,41.99-34.65,58.62C225.43,108.95,210.53,113.19,198.17,113.19z M248.59,41.37c-9.79,0-22.76,3.42-36.22,11.2    c-24.39,14.08-35.61,33.9-30.43,42.88c5.19,8.98,27.96,9.17,52.35-4.91c24.39-14.08,35.61-33.9,30.43-42.88    C262.4,43.63,256.54,41.37,248.59,41.37z"/></g><g><path d="M198.52,91.63c-1.04,0-2.08-0.28-3.03-0.87c-2.7-1.68-3.54-5.23-1.86-7.93c1.28-2.06,2.76-4.02,3.72-5.18    c6.34-7.61,14.41-13.1,20.06-16.36s14.43-7.5,24.2-9.19c1.48-0.26,3.93-0.56,6.35-0.63c3.21-0.1,5.84,2.4,5.94,5.58    c0.1,3.18-2.4,5.84-5.58,5.94c-1.71,0.05-3.61,0.27-4.75,0.47c-8.09,1.4-15.56,5.02-20.4,7.81c-4.84,2.79-11.71,7.45-16.97,13.76    c-0.73,0.88-1.88,2.42-2.78,3.88C202.33,90.67,200.45,91.63,198.52,91.63z"/></g><g><path d="M371.78,220.84c-3.93,0-7.59-0.94-10.86-2.82c-8.36-4.83-12.62-14.99-11.98-28.63c0.57-12.28,5.07-26.29,12.68-39.46l0,0    c16.63-28.8,42.38-44.02,58.62-34.65c16.24,9.38,15.93,39.28-0.7,68.09c-7.6,13.17-17.49,24.08-27.83,30.71    C384.71,218.57,377.91,220.84,371.78,220.84z M371.59,155.69c-6.7,11.61-10.66,23.76-11.15,34.24    c-0.42,8.98,1.85,15.58,6.24,18.11c4.38,2.53,11.24,1.2,18.8-3.66c8.83-5.66,17.38-15.17,24.08-26.77    c14.08-24.39,13.89-47.17,4.91-52.35C405.5,120.08,385.67,131.3,371.59,155.69L371.59,155.69z"/></g><g><path d="M376.26,197.22c-0.06,0-0.12,0-0.18,0c-3.18-0.1-5.68-2.76-5.58-5.94c0.07-2.42,0.38-4.86,0.63-6.35    c1.69-9.76,5.93-18.55,9.19-24.2c3.26-5.65,8.75-13.71,16.36-20.06c1.15-0.96,3.12-2.44,5.18-3.72c2.71-1.68,6.25-0.84,7.93,1.86    c1.68,2.7,0.84,6.25-1.86,7.93c-1.45,0.9-2.99,2.05-3.87,2.78c-6.31,5.26-10.97,12.13-13.76,16.97    c-2.79,4.84-6.42,12.31-7.81,20.4c-0.2,1.13-0.42,3.04-0.47,4.75C381.92,194.76,379.36,197.22,376.26,197.22z"/></g><g><g><path d="M445.27,338.75c-15.44,0-34.6-14.35-47.91-37.41c-7.6-13.17-12.11-27.18-12.68-39.46c-0.63-13.63,3.62-23.8,11.98-28.63     s19.29-3.43,30.78,3.94c10.35,6.63,20.23,17.54,27.83,30.71c16.63,28.8,16.93,58.71,0.69,68.09     C452.74,337.86,449.12,338.75,445.27,338.75z M407.55,241.98c-1.94,0-3.67,0.41-5.12,1.25c-4.38,2.53-6.65,9.13-6.24,18.11     c0.49,10.47,4.45,22.63,11.15,34.24c14.08,24.39,33.9,35.61,42.88,30.43c8.98-5.18,9.17-27.96-4.91-52.35     c-6.7-11.61-15.25-21.11-24.08-26.77C416.17,243.65,411.44,241.98,407.55,241.98z"/></g><g><path d="M440.64,315.19c-3.1,0-5.66-2.46-5.75-5.58c-0.05-1.71-0.28-3.62-0.47-4.75c-1.4-8.09-5.02-15.56-7.81-20.4     c-2.79-4.84-7.45-11.71-13.76-16.97c-0.88-0.74-2.43-1.88-3.88-2.78c-2.7-1.68-3.54-5.23-1.86-7.93c1.68-2.7,5.23-3.54,7.93-1.86     c2.05,1.27,4.02,2.76,5.18,3.72c7.62,6.35,13.1,14.41,16.36,20.06c3.26,5.65,7.5,14.43,9.19,24.2c0.26,1.48,0.56,3.93,0.63,6.35     c0.1,3.18-2.4,5.84-5.58,5.94C440.76,315.19,440.7,315.19,440.64,315.19z"/></g></g><g><g><path d="M85.15,365.66c-15.44,0-34.6-14.35-47.91-37.41c-16.63-28.8-16.94-58.71-0.7-68.09c16.24-9.38,41.99,5.84,58.62,34.65     s16.94,58.71,0.7,68.09C92.62,364.76,89,365.66,85.15,365.66z M47.4,268.9c-1.93,0-3.65,0.41-5.09,1.24     c-8.98,5.18-9.17,27.96,4.91,52.35c14.08,24.39,33.9,35.61,42.88,30.43c8.98-5.18,9.17-27.96-4.91-52.35     C73.36,280.09,57.5,268.9,47.4,268.9z"/></g><g><path d="M80.52,342.09c-1.04,0-2.08-0.28-3.03-0.87c-2.06-1.28-4.03-2.76-5.18-3.72c-7.61-6.34-13.1-14.41-16.36-20.06     c-3.26-5.65-7.5-14.43-9.19-24.2c-0.26-1.48-0.56-3.93-0.63-6.35c-0.1-3.18,2.4-5.84,5.58-5.94c3.16-0.1,5.84,2.4,5.94,5.58     c0.05,1.71,0.27,3.61,0.47,4.74c1.4,8.09,5.02,15.56,7.81,20.4c2.79,4.84,7.45,11.71,13.76,16.97c0.88,0.73,2.42,1.88,3.88,2.78     c2.7,1.68,3.54,5.23,1.86,7.93C84.33,341.13,82.44,342.09,80.52,342.09z"/></g></g><g><g><path d="M111.73,225.37c-6.13,0-12.92-2.27-19.92-6.76c-10.35-6.63-20.23-17.54-27.83-30.71c-16.63-28.8-16.93-58.71-0.7-68.09     c16.24-9.37,41.99,5.84,58.62,34.65l0,0c7.6,13.17,12.11,27.18,12.68,39.46c0.63,13.63-3.62,23.8-11.98,28.63     C119.32,224.43,115.66,225.37,111.73,225.37z M74.13,128.55c-1.93,0-3.65,0.41-5.09,1.24c-8.98,5.18-9.17,27.96,4.91,52.35     c6.7,11.61,15.25,21.11,24.08,26.77c7.57,4.85,14.42,6.19,18.8,3.66c4.38-2.53,6.65-9.13,6.24-18.11     c-0.49-10.47-4.45-22.63-11.15-34.24l0,0C100.1,139.75,84.23,128.55,74.13,128.55z"/></g><g><path d="M107.25,201.75c-1.04,0-2.08-0.28-3.03-0.86c-2.05-1.27-4.02-2.76-5.18-3.72c-7.61-6.34-13.1-14.41-16.36-20.06     c-3.26-5.65-7.5-14.43-9.19-24.2c-0.26-1.48-0.56-3.93-0.63-6.35c-0.1-3.18,2.4-5.84,5.58-5.94c3.18-0.11,5.84,2.4,5.94,5.58     c0.05,1.71,0.27,3.61,0.47,4.74c1.4,8.09,5.02,15.56,7.81,20.4c2.79,4.84,7.45,11.71,13.76,16.97c0.88,0.74,2.43,1.88,3.88,2.78     c2.7,1.68,3.54,5.23,1.86,7.93C111.06,200.78,109.18,201.75,107.25,201.75z"/></g></g></g><text x="0" y="507" fill="#000000" font-size="5px" font-weight="bold" font-family="'Helvetica Neue', Helvetica, Arial-Unicode, Arial, Sans-serif">Created by Vectoricons</text><text x="0" y="512" fill="#000000" font-size="5px" font-weight="bold" font-family="'Helvetica Neue', Helvetica, Arial-Unicode, Arial, Sans-serif">from the Noun Project</text></svg>