<svg xmlns="http://www.w3.org/2000/svg" version="1.1" viewBox="-5.0 -10.0 110.0 135.0">
 <path d="m50.367 96.547c-20.82 0-37.758-16.938-37.758-37.758 0-5.6719 2.7109-12.832 8.0625-21.273h0.003906c0.21484-0.36328 0.57031-0.62109 0.98047-0.72266 0.41016-0.097657 0.84375-0.023438 1.1992 0.20312 0.35547 0.22266 0.60547 0.58594 0.69141 0.99609 0.085937 0.41406 0.003906 0.84375-0.23438 1.1953-5.0273 7.9336-7.5781 14.523-7.5781 19.602 0 19.098 15.539 34.633 34.633 34.633 19.098 0.003906 34.637-15.535 34.637-34.633 0-17.188-28.695-45.867-34.637-51.617-1.3672 1.3281-3.9727 3.8867-7.125 7.2266-0.59375 0.62891-1.582 0.65625-2.2109 0.0625-0.625-0.59375-0.65234-1.582-0.0625-2.2109 4.7734-5.0469 8.3008-8.3438 8.3359-8.3789 0.60156-0.55859 1.5312-0.55859 2.1328 0 6.4414 6.1602 12.531 12.68 18.234 19.531 12.25 14.812 18.457 26.719 18.457 35.383 0 20.824-16.938 37.762-37.762 37.762z"/>
 <path d="m35.461 84.703c-6.4453 0-11.484-8.3516-11.484-19.012s5.043-19.012 11.484-19.012c6.4414 0 11.488 8.3516 11.488 19.008 0 10.664-5.0469 19.016-11.488 19.016zm0-34.898c-4.5312 0-8.3594 7.2734-8.3594 15.883s3.8281 15.887 8.3594 15.887c4.5352 0 8.3633-7.2734 8.3633-15.887 0-8.6094-3.832-15.883-8.3633-15.883z"/>
 <path d="m35.461 75.035c-3.3594 0-5.9922-4.1016-5.9922-9.3438 0-5.2461 2.6328-9.3438 5.9922-9.3438 3.3594 0 5.9922 4.1016 5.9922 9.3438 0 5.2422-2.6328 9.3438-5.9922 9.3438zm0-15.566c-1.1719 0-2.8672 2.4219-2.8672 6.2188s1.6953 6.2188 2.8672 6.2188c1.168 0 2.8672-2.4219 2.8672-6.2188s-1.6992-6.2188-2.8672-6.2188z"/>
 <path d="m64.367 72.789c-6.4453 0-11.484-8.3516-11.484-19.012s5.043-19.012 11.484-19.012c6.4414 0 11.488 8.3516 11.488 19.008 0 10.664-5.0469 19.016-11.488 19.016zm0-34.898c-4.5312 0-8.3594 7.2734-8.3594 15.883 0 8.6094 3.8281 15.887 8.3594 15.887s8.3633-7.2734 8.3633-15.887c0-8.6094-3.832-15.883-8.3633-15.883z"/>
 <path d="m64.367 63.121c-3.3594 0-5.9922-4.1016-5.9922-9.3438 0-5.2461 2.6328-9.3438 5.9922-9.3438 3.3555 0 5.9922 4.1016 5.9922 9.3438 0 5.2422-2.6328 9.3438-5.9922 9.3438zm0-15.566c-1.1719 0-2.8672 2.4219-2.8672 6.2188 0 3.7969 1.6953 6.2188 2.8672 6.2188 1.168 0 2.8672-2.4219 2.8672-6.2188 0-3.7969-1.6992-6.2188-2.8672-6.2188z"/>
 <path d="m29.754 41.871c-4.7461 0-9.293-1.8828-12.648-5.2383-3.3516-3.3516-5.2344-7.9023-5.2344-12.645 0-4.7422 1.8828-9.293 5.2344-12.645 3.3555-3.3555 7.9023-5.2383 12.648-5.2383 4.7422 0 9.2891 1.8828 12.645 5.2383 3.3516 3.3516 5.2383 7.9023 5.2383 12.645h-0.003907c-0.003906 4.7422-1.8906 9.2852-5.2422 12.641-3.3516 3.3516-7.8984 5.2383-12.641 5.2422zm0-32.641c-3.9141 0-7.668 1.5547-10.438 4.3242-2.7656 2.7656-4.3203 6.5195-4.3203 10.434 0 3.9141 1.5547 7.668 4.3203 10.434 2.7695 2.7695 6.5234 4.3242 10.434 4.3242 3.9141 0 7.668-1.5547 10.438-4.3242 2.7656-2.7656 4.3203-6.5195 4.3203-10.434-0.003906-3.9141-1.5586-7.6641-4.3242-10.43-2.7695-2.7695-6.5195-4.3242-10.434-4.3281z"/>
 <path d="m29.59 35.352c-2.5195 0.011719-4.5742-2.0195-4.5898-4.5391v-2.1016h-2.0742c-2.4805 0-4.4922-2.0117-4.4922-4.4922s2.0117-4.4922 4.4922-4.4922h2.0742v-2.5664c0-2.5352 2.0547-4.5898 4.5898-4.5898s4.5898 2.0547 4.5898 4.5898v2.5664h2.3984c2.4844 0 4.4922 2.0117 4.4922 4.4922s-2.0078 4.4922-4.4922 4.4922h-2.3984v2.1055c-0.015626 2.5156-2.0703 4.5469-4.5898 4.5352zm-6.6641-12.5c-0.75391 0-1.3672 0.61328-1.3672 1.3672s0.61328 1.3672 1.3672 1.3672h3.6367c0.41406 0 0.8125 0.16406 1.1055 0.45703s0.45703 0.69141 0.45703 1.1055v3.668c0.039062 0.77734 0.68359 1.3906 1.4648 1.3906s1.4258-0.61328 1.4648-1.3906v-3.668c0-0.86328 0.69922-1.5625 1.5625-1.5625h3.9609c0.75781 0 1.3672-0.61328 1.3672-1.3672s-0.60937-1.3672-1.3672-1.3672h-3.9609c-0.86328 0-1.5625-0.69922-1.5625-1.5625v-4.1289c-0.039063-0.78125-0.68359-1.3906-1.4648-1.3906s-1.4258 0.60938-1.4648 1.3906v4.1289c0 0.41406-0.16406 0.8125-0.45703 1.1055s-0.69141 0.45703-1.1055 0.45703z"/>
<text x="0.0" y="117.5" font-size="5.0" font-weight="bold" font-family="Arbeit Regular, Helvetica, Arial-Unicode, Arial, Sans-serif" fill="#000000">Created by Designing Hub</text><text x="0.0" y="122.5" font-size="5.0" font-weight="bold" font-family="Arbeit Regular, Helvetica, Arial-Unicode, Arial, Sans-serif" fill="#000000">from Noun Project</text></svg>