<svg xmlns="http://www.w3.org/2000/svg" version="1.1" viewBox="-5.0 -10.0 110.0 135.0">
 <path d="m94.996 68.406c0-2.9805-2.4258-5.3984-5.3984-5.3984-0.42969 0-0.84375 0.054688-1.2422 0.14453-2.6211-3.7227-7.8984-7.1445-16.008-10.391v-3.4922c0-1.4883-1.2578-2.6992-2.8086-2.6992-0.80469 0-1.4531 0.65234-1.4531 1.457 0 0.76953 0.59766 1.3945 1.3477 1.4531v2.1719c-0.76953-0.28125-1.5547-0.5625-2.3711-0.84375-0.88281-0.42969-1.3906-1.5391-1.5039-3.3125 5.2422-5.3945 7.0312-13.105 5.9727-25.586-0.66406-9.0977-8.125-13.242-14.781-13.242-6.6641 0-14.141 4.1445-14.801 13.227-1.0586 12.477 0.73047 20.191 5.9727 25.602-0.11328 1.7773-0.60938 2.8945-1.4805 3.3125-0.82031 0.27734-1.6133 0.5625-2.3945 0.84766v-2.1758c0.75781-0.054688 1.3516-0.68359 1.3516-1.4531 0-0.80469-0.65234-1.457-1.457-1.457-1.5469 0-2.8086 1.2148-2.8086 2.6992v3.4922c-1.4492 0.57812-2.8203 1.1641-4.0938 1.7617v-19.477c0-1.3945-1.1328-2.5273-2.5273-2.5273h-5.7031v-1.3516c0-1.1836-0.96094-2.1445-2.1445-2.1445h-11.184c-1.1719 0-2.1211 0.96094-2.1211 2.1445v1.3516h-5.8047c-1.4062 0-2.5508 1.1367-2.5508 2.5273v36.445c0 1.3945 1.1445 2.5273 2.5508 2.5273h13.91c0.082031 3.8633 3.2539 6.9844 7.1484 6.9844h26.773c0.72266 5.8125 5.6836 10.324 11.684 10.324 6.0039 0 10.965-4.5156 11.688-10.324h6.0977c3.9453 0 7.1562-3.1992 7.1562-7.1367 0-0.054688-0.003907-0.11328-0.011719-0.17578-0.015625-0.14062-0.039062-0.27734-0.054688-0.41797 1.8047-0.87891 3.0508-2.7266 3.0508-4.8672zm-9.2148-3.832c-0.65625 0.64844-1.1445 1.4648-1.3984 2.375h-4.0859c-2.3984 0-4.3477 1.9492-4.3477 4.3516v6.793h-17.742v-8.2305h1.5c6.9727 0 12.641-5.2188 12.641-11.637v-2.3164c6.7109 2.7891 11.207 5.6953 13.434 8.6641zm-38.336-11.027c0.042969-0.015625 0.085938-0.03125 0.125-0.050781 2.125-0.94922 3.2305-3.1523 3.2852-6.5586 0.007812-0.40234-0.15625-0.78906-0.44141-1.0664-4.9062-4.7578-6.5703-11.855-5.5625-23.746 0.53125-7.2812 6.3555-10.539 11.895-10.539 5.5273 0 11.344 3.2617 11.875 10.559 1.0078 11.891-0.65234 18.988-5.5586 23.727-0.28906 0.27734-0.45312 0.66406-0.44531 1.0703 0.054687 3.3945 1.1641 5.6016 3.3086 6.5586 0.039063 0.019531 0.082031 0.035156 0.125 0.050781 1.1797 0.40234 2.3008 0.80859 3.3828 1.2188v3.4688c0 4.8086-4.3633 8.7227-9.7266 8.7227h-5.9336c-5.3633 0-9.7305-3.9102-9.7305-8.7227v-3.4648c1.0938-0.42188 2.2266-0.82813 3.4023-1.2266zm-31.172-21.609h9.6172v3.8828h-9.6172zm-8.3555 3.4961h5.4414v1.1562c0 1.1836 0.94922 2.1445 2.1211 2.1445h11.184c1.1836 0 2.1445-0.96484 2.1445-2.1445v-1.1562h5.3125v35.676h-26.203zm16.461 38.586h10.129c1.3945 0 2.5273-1.1367 2.5273-2.5273v-13.73c1.2578-0.62109 2.6211-1.2383 4.0938-1.8477v2.3164c0 6.4141 5.6719 11.637 12.641 11.637h1.5195v8.2305l-26.672-0.003906c-2.2891 0-4.1602-1.8164-4.2383-4.0742zm42.695 14.402c-4.3945 0-8.0391-3.2188-8.7383-7.4141h17.48c-0.69922 4.1953-4.3477 7.4141-8.7422 7.4141zm17.785-10.328h-5.9961v-6.793c0-0.77734 0.65625-1.4375 1.4336-1.4375h4.082c0.59375 2.1211 2.4492 3.7266 4.7031 3.9375 0.007813 0.050781 0.011719 0.097657 0.019531 0.14844-0.042968 2.293-1.9297 4.1445-4.2422 4.1445zm5.293-7.25c-0.015625 0.003906-0.03125 0-0.046875 0.003906-0.027344 0.003906-0.054688 0.015625-0.078125 0.019532-0.14062 0.027343-0.28125 0.046874-0.42969 0.046874-1.3828 0-2.5078-1.1211-2.5078-2.5039 0-1.3711 1.125-2.4844 2.5078-2.4844 1.3672 0 2.4844 1.1133 2.4844 2.4844-0.003906 1.1875-0.82812 2.1797-1.9297 2.4336z"/>
<text x="0.0" y="117.5" font-size="5.0" font-weight="bold" font-family="Arbeit Regular, Helvetica, Arial-Unicode, Arial, Sans-serif" fill="#000000">Created by Ali Nur Rohman</text><text x="0.0" y="122.5" font-size="5.0" font-weight="bold" font-family="Arbeit Regular, Helvetica, Arial-Unicode, Arial, Sans-serif" fill="#000000">from Noun Project</text></svg>