<svg xmlns="http://www.w3.org/2000/svg" xmlns:xlink="http://www.w3.org/1999/xlink" version="1.1" x="0px" y="0px" viewBox="0 0 492 615" style="enable-background:new 0 0 492 492;" xml:space="preserve"><g><g><path d="M173.36,468.5c-3.18,0-5.76-2.58-5.76-5.76v-44.76h-45.83c-14.16,0-25.68-11.52-25.68-25.68v-75.69H67.37    c-9.55,0-20.11-5.76-24.57-13.4c-2.91-4.99-3.04-10.36-0.35-15.11l38.08-67.46c-0.18-3.32-0.27-6.61-0.27-9.8    c0-102.49,83.38-185.87,185.86-185.87s185.87,83.38,185.87,185.87c0,62.7-31.07,120.4-83.27,154.99v96.91    c0,3.18-2.58,5.76-5.76,5.76c-3.18,0-5.76-2.58-5.76-5.76V362.71c0-1.97,1-3.8,2.66-4.85c50.48-32.25,80.61-87.21,80.61-147.01    c0-96.13-78.21-174.35-174.35-174.35c-96.13,0-174.35,78.21-174.35,174.35c0,3.5,0.12,7.13,0.34,10.8    c0.07,1.11-0.19,2.22-0.73,3.19l-38.91,68.94c-0.45,0.8-0.77,1.85,0.27,3.64c2.39,4.09,9.22,7.69,14.62,7.69h34.49    c3.18,0,5.76,2.58,5.76,5.76v81.45c0,7.81,6.35,14.16,14.16,14.16h51.59c3.18,0,5.76,2.58,5.76,5.76v50.52    C179.12,465.92,176.54,468.5,173.36,468.5z"/></g><g><path d="M284.14,279.48c-1.9,0-3.71-0.94-4.79-2.57c-1.35-2.03-1.28-4.68,0.18-6.64c5.83-7.85,15.5-24.99,12.53-33.33    c-0.75,0.28-1.52,0.62-2.34,0.98c-2.87,1.25-6.44,2.81-11.07,2.81c-9.06,0-17.7-3.39-24.3-9.43c-5.78,2.45-12.05,3.73-18.37,3.73    c-23.46,0-42.9-16.98-46.47-39.58c-27.43-1.27-49.36-23.98-49.36-51.72c0-28.55,23.23-51.78,51.78-51.78    c2.38,0,4.75,0.16,7.1,0.48c4.88-14.94,18.77-25.26,34.99-25.26c12.38,0,23.73,6.23,30.48,16.15    c8.46-8.28,19.87-13.03,31.95-13.03c19.65,0,37.11,12.81,43.29,31.08c25.7-0.68,46.83,20.09,46.83,45.66c0,2.1-0.14,4.2-0.43,6.27    c9.25,9.16,14.5,21.65,14.5,34.76c0,13.07-5.09,25.36-14.33,34.6c-9.23,9.24-21.5,14.32-34.56,14.32c-0.01,0-0.03,0-0.04,0    c-4.28,0-8.47-0.54-12.52-1.61c-9.69,11.92-33.39,38.85-53.63,43.91C285.07,279.43,284.6,279.48,284.14,279.48z M294.62,224.66    c1.53,0,3,0.61,4.09,1.71c8.47,8.54,5.49,21.87,0.62,32.78c11.64-8.81,24.05-22.24,33.13-33.8c1.85-2.36,4.5-2.77,6.61-2.02l0,0    c4.01,1.44,8.25,2.17,12.63,2.18c0.01,0,0.02,0,0.03,0c9.97,0,19.35-3.89,26.41-10.95c7.07-7.07,10.96-16.46,10.96-26.46    c0-10.87-4.72-21.19-12.96-28.31c-1.59-1.37-2.31-3.51-1.87-5.56c0.5-2.35,0.75-4.76,0.75-7.16c0-18.84-15.32-34.16-34.16-34.16    c-1.54,0-3.11,0.11-4.65,0.32c-2.98,0.41-5.77-1.55-6.41-4.49c-3.37-15.59-17.41-26.9-33.38-26.9c-11.38,0-21.97,5.64-28.34,15.09    c-1.22,1.8-3.35,2.77-5.51,2.49c-2.16-0.28-3.98-1.75-4.7-3.8C254.31,85.5,244.72,78.7,234,78.7c-12.54,0-23.05,8.97-25,21.34    c-0.25,1.6-1.17,3.02-2.52,3.91c-1.35,0.89-3.02,1.17-4.59,0.77c-3.24-0.83-6.6-1.25-9.97-1.25c-22.2,0-40.26,18.06-40.26,40.26    c0,22.2,18.06,40.26,40.26,40.26c0.78,0,1.6-0.03,2.44-0.08c1.54-0.09,3.06,0.44,4.21,1.48c1.15,1.04,1.83,2.49,1.89,4.04    c0.77,19.11,16.36,34.08,35.5,34.08c5.89,0,11.73-1.47,16.88-4.26c2.39-1.29,5.36-0.74,7.12,1.33c4.67,5.48,11.48,8.63,18.67,8.63    c2.23,0,4.1-0.82,6.47-1.85c2.51-1.09,5.35-2.33,8.96-2.68C294.25,224.67,294.43,224.66,294.62,224.66z M337.12,228.74    L337.12,228.74L337.12,228.74z"/></g><g><path d="M337.11,234.5c-3.07,0-5.63-2.43-5.75-5.53c-0.13-3.18,2.34-5.86,5.52-5.99c5.42-0.22,9.66-4.64,9.66-10.06    c0-2.53-0.95-4.96-2.66-6.82c-2.15-2.34-2-5.98,0.34-8.14s5.99-2,8.14,0.34c3.68,4,5.7,9.19,5.7,14.62    c0,11.62-9.1,21.1-20.71,21.57C337.27,234.49,337.19,234.5,337.11,234.5z"/></g><g><path d="M364.09,176.38c-5.23,0-10.48-1.9-14.63-5.74c-2.34-2.16-2.49-5.8-0.33-8.14c2.16-2.34,5.8-2.49,8.14-0.33    c3.99,3.68,10.11,3.55,13.95-0.28c1.79-1.79,2.84-4.17,2.94-6.7c0.13-3.18,2.8-5.64,5.99-5.52c3.18,0.13,5.65,2.81,5.52,5.99    c-0.22,5.43-2.46,10.53-6.3,14.37C375.13,174.25,369.62,176.38,364.09,176.38z"/></g><g><path d="M247.85,118.75c-3.45,0-6.88-0.83-10-2.47c-2.82-1.48-3.91-4.96-2.43-7.77s4.96-3.91,7.77-2.43    c2.25,1.17,4.83,1.46,7.28,0.81c5.24-1.4,8.41-6.65,7.22-11.94c-0.7-3.1,1.25-6.19,4.36-6.88c3.11-0.7,6.19,1.25,6.88,4.36    c2.55,11.34-4.25,22.58-15.48,25.59C251.61,118.51,249.72,118.75,247.85,118.75z"/></g><g><path d="M325.83,139.68c-1.55,0-3.1-0.63-4.24-1.86c-3.68-4-5.71-9.19-5.71-14.62c0-11.62,9.1-21.1,20.71-21.57    c3.17-0.11,5.86,2.34,5.99,5.52c0.13,3.18-2.34,5.86-5.52,5.99c-5.42,0.22-9.66,4.64-9.66,10.06c0,2.53,0.95,4.96,2.66,6.82    c2.15,2.34,2,5.98-0.33,8.14C328.63,139.18,327.23,139.68,325.83,139.68z"/></g><g><path d="M206.11,133.05c-1.91,0-3.77-0.95-4.87-2.68c-1.7-2.69-0.91-6.25,1.78-7.95c2.14-1.36,3.68-3.45,4.34-5.9    c1.4-5.24-1.55-10.6-6.73-12.22c-3.04-0.95-4.73-4.18-3.78-7.21c0.95-3.04,4.18-4.73,7.21-3.78c11.1,3.46,17.43,14.97,14.42,26.2    c-1.41,5.25-4.71,9.74-9.3,12.65C208.23,132.76,207.16,133.05,206.11,133.05z"/></g><g><path d="M194.71,195.43c-2.07,0-4.08-1.12-5.11-3.09c-5.4-10.29-1.74-22.91,8.33-28.72c4.71-2.72,10.22-3.56,15.52-2.37    c3.1,0.7,5.06,3.78,4.36,6.88s-3.78,5.06-6.88,4.36c-2.48-0.56-5.04-0.16-7.24,1.1c-4.7,2.71-6.4,8.6-3.88,13.4    c1.48,2.82,0.39,6.3-2.43,7.78C196.52,195.21,195.61,195.43,194.71,195.43z"/></g><g><path d="M255.58,230.09c-2.07,0-4.08-1.12-5.11-3.09c-5.4-10.29-1.74-22.91,8.32-28.72c4.7-2.72,10.21-3.56,15.52-2.37    c3.1,0.7,5.06,3.78,4.36,6.88c-0.7,3.1-3.77,5.06-6.88,4.36c-2.47-0.55-5.04-0.16-7.24,1.11c-4.7,2.71-6.4,8.6-3.88,13.4    c1.48,2.82,0.39,6.3-2.43,7.78C257.4,229.88,256.49,230.09,255.58,230.09z"/></g></g><text x="0" y="507" fill="#000000" font-size="5px" font-weight="bold" font-family="'Helvetica Neue', Helvetica, Arial-Unicode, Arial, Sans-serif">Created by Vectoricons</text><text x="0" y="512" fill="#000000" font-size="5px" font-weight="bold" font-family="'Helvetica Neue', Helvetica, Arial-Unicode, Arial, Sans-serif">from the Noun Project</text></svg>